HIERARCHY
ROOT Hips
{
  OFFSET -67.495 39.8819 1.68766
  CHANNELS 6 Xposition Yposition Zposition Zrotation Xrotation Yrotation
  JOINT LeftHip
  {
    OFFSET 3.43 -1.06581e-013 4.61853e-014
    CHANNELS 6 Xposition Yposition Zposition Zrotation Xrotation Yrotation
    JOINT LeftKnee
    {
      OFFSET 2.13163e-014 -18.47 -4.9738e-014
      CHANNELS 6 Xposition Yposition Zposition Zrotation Xrotation Yrotation
      JOINT LeftAnkle
      {
        OFFSET 2.13163e-014 -17.95 7.10543e-015
        CHANNELS 6 Xposition Yposition Zposition Zrotation Xrotation Yrotation
        End Site
        {
          OFFSET 0 -3.12 0
        }
      }
    }
  }
  JOINT RightHip
  {
    OFFSET -3.43 -2.70006e-013 2.4869e-014
    CHANNELS 6 Xposition Yposition Zposition Zrotation Xrotation Yrotation
    JOINT RightKnee
    {
      OFFSET 1.42109e-014 -18.47 -2.93099e-014
      CHANNELS 6 Xposition Yposition Zposition Zrotation Xrotation Yrotation
      JOINT RightAnkle
      {
        OFFSET -6.21725e-015 -17.95 7.10543e-015
        CHANNELS 6 Xposition Yposition Zposition Zrotation Xrotation Yrotation
        End Site
        {
          OFFSET 0 -3.12 0
        }
      }
    }
  }
  JOINT Chest
  {
    OFFSET -2.84217e-014 4.57 -3.55271e-014
    CHANNELS 6 Xposition Yposition Zposition Zrotation Xrotation Yrotation
    JOINT Chest2
    {
      OFFSET 2.84217e-014 6.57 1.46549e-014
      CHANNELS 6 Xposition Yposition Zposition Zrotation Xrotation Yrotation
      JOINT LeftCollar
      {
        OFFSET 1.06 4.19 1.76
        CHANNELS 6 Xposition Yposition Zposition Zrotation Xrotation Yrotation
        JOINT LeftShoulder
        {
          OFFSET 5.81 7.10543e-015 2.13163e-014
          CHANNELS 6 Xposition Yposition Zposition Zrotation Xrotation Yrotation
          JOINT LeftElbow
          {
            OFFSET -9.23706e-014 -12.08 2.84217e-014
            CHANNELS 6 Xposition Yposition Zposition Zrotation Xrotation Yrotation
            JOINT LeftWrist
            {
              OFFSET -2.13163e-014 -9.82 -3.55271e-014
              CHANNELS 6 Xposition Yposition Zposition Zrotation Xrotation Yrotation
              End Site
              {
                OFFSET 0 -7.37 0
              }
            }
          }
        }
      }
      JOINT RightCollar
      {
        OFFSET -1.06 4.19 1.76
        CHANNELS 6 Xposition Yposition Zposition Zrotation Xrotation Yrotation
        JOINT RightShoulder
        {
          OFFSET -6.06 -2.84217e-014 -1.77636e-014
          CHANNELS 6 Xposition Yposition Zposition Zrotation Xrotation Yrotation
          JOINT RightElbow
          {
            OFFSET 7.81597e-014 -11.08 -7.10543e-014
            CHANNELS 6 Xposition Yposition Zposition Zrotation Xrotation Yrotation
            JOINT RightWrist
            {
              OFFSET 1.42109e-014 -9.82 -2.4869e-014
              CHANNELS 6 Xposition Yposition Zposition Zrotation Xrotation Yrotation
              End Site
              {
                OFFSET 0 -7.14001 0
              }
            }
          }
        }
      }
      JOINT Neck
      {
        OFFSET 0 4.05 4.9738e-014
        CHANNELS 6 Xposition Yposition Zposition Zrotation Xrotation Yrotation
        JOINT Head
        {
          OFFSET 3.55271e-015 5.19 -1.77636e-015
          CHANNELS 6 Xposition Yposition Zposition Zrotation Xrotation Yrotation
          End Site
          {
            OFFSET 0 4.14001 0
          }
        }
      }
    }
  }
}
MOTION
Frames:	7
Frame Time:	0.0333333
-4.42267 39.1593 -4.15749 -1.82724 -1.0136 -90.3965 3.43 -1.73639e-013 -4.09358e-013 -3.38485 0.44613 8.25111 2.13163e-014 -18.47 -4.9738e-014 -1.26238 17.159 -7.51263 1.01738e-012 -17.95 7.79932e-015 5.94361 -15.4423 0.806441 -3.43 2.31454e-013 1.30527e-012 -3.61998 -23.2352 -4.19095 -6.59883e-013 -18.47 -2.93099e-014 -2.93635 32.3459 -5.63989 -6.21725e-015 -17.95 -2.52089e-012 2.10664 0.323609 0.0184002 3.08879e-013 4.57 -3.11502e-012 -3.54429 0.705775 -2.94338 -1.16568e-011 6.57 1.46549e-014 -2.93794 0.573214 -3.00012 1.06 4.19 1.76 0.8139 0.654687 -1.90675 5.81 -1.59458e-012 5.21195e-012 25.772 -4.76771 -9.72405 3.14259e-012 -12.08 -1.59382e-012 -19.2848 -57.5101 -30.1912 -2.13163e-014 -9.82 -3.55271e-014 15.7284 14.7081 -2.04236 -1.06 4.19 1.76 2.1255 0.753959 1.40757 -6.06 1.30541e-012 -4.72942e-013 -19.7239 4.74756 39.5474 2.59277e-012 -11.08 1.01392e-012 -147.046 -52.4974 -127.8 1.42109e-014 -9.82 -2.4869e-014 0.578456 10.058 -0.0509885 5.93582e-012 4.05 -4.2487e-012 0.52524 12.5787 0.46923 3.55271e-015 5.19 -1.77636e-015 1.25272 9.15398 0.191898 
-5.47184 39.0434 -4.13655 -1.08533 -1.03558 -89.1121 3.43 -1.73639e-013 -3.74659e-013 -3.1055 1.05801 8.13641 2.13163e-014 -18.47 -4.9738e-014 -0.687848 17.5459 -7.96716 9.63773e-013 -17.95 -1.22904e-013 5.8022 -17.1989 0.87896 -3.43 4.5991e-014 1.32144e-012 -3.12411 -24.9166 -3.95426 -6.13005e-013 -18.47 -2.93099e-014 -1.88517 25.4765 -7.43187 -6.21725e-015 -17.95 -2.4573e-012 0.0144327 3.61208 -0.0218557 3.05245e-013 4.57 -3.14102e-012 -2.97315 0.370264 -3.42859 -1.16515e-011 6.57 1.46549e-014 -2.37573 0.269095 -3.38219 1.06 4.19 1.76 0.828545 0.653268 -2.01732 5.81 -1.57147e-012 5.21008e-012 25.9803 -6.87513 -10.8297 3.08389e-012 -12.08 -1.58155e-012 -19.3007 -57.8004 -29.0864 -2.13163e-014 -9.82 -3.55271e-014 16.0025 13.9777 -1.97462 -1.06 4.19 1.76 2.22591 0.757537 1.35071 -6.06 1.29858e-012 -4.8089e-013 -20.1865 4.37666 40.7998 2.67685e-012 -11.08 1.0441e-012 -146.456 -52.1824 -126.337 1.42109e-014 -9.82 -2.4869e-014 0.48207 10.0751 -0.0426026 5.95099e-012 4.05 -4.22615e-012 0.418892 12.7133 0.286687 3.55271e-015 5.19 -1.77636e-015 1.13988 9.36904 0.0991435 
-6.54102 38.8781 -4.14477 -0.126568 -0.0105052 -88.0853 3.43 1.59428e-013 -3.39948e-013 -2.76868 1.21964 7.81056 2.13163e-014 -18.47 -4.9738e-014 0.0660513 18.4166 -8.24401 9.10867e-013 -17.95 -3.43681e-015 5.48232 -19.2577 0.929716 -3.43 -1.58346e-013 1.33447e-012 -3.0211 -25.0901 -4.07695 -5.65198e-013 -18.47 -2.93099e-014 -0.50706 16.7704 -8.19946 -6.21725e-015 -17.95 -2.39291e-012 1.24373 5.92112 -0.0616367 3.01549e-013 4.57 -3.16549e-012 -2.34405 -0.139464 -3.82918 -1.16457e-011 6.57 1.46549e-014 -1.77312 -0.191439 -3.67592 1.06 4.19 1.76 0.929612 0.648212 -1.99352 5.81 -1.54832e-012 5.208e-012 25.8076 -8.20617 -11.9255 3.02501e-012 -12.08 -1.56541e-012 -19.1966 -57.8742 -29.7597 -2.13163e-014 -9.82 -3.55271e-014 15.4149 13.701 -1.86276 -1.06 4.19 1.76 2.05137 0.746339 1.16881 -6.06 1.29139e-012 -4.8784e-013 -20.2661 4.24288 42.3379 2.76016e-012 -11.08 1.07355e-012 -145.83 -51.701 -125.125 1.42109e-014 -9.82 -2.4869e-014 0.879842 9.98033 -0.0766857 5.96606e-012 4.05 -4.20318e-012 0.231956 12.8662 0.0617958 3.55271e-015 5.19 -1.77636e-015 1.15635 9.8522 -0.125161 
-7.7316 38.7237 -4.17881 0.247913 -0.273547 -87.6915 3.43 3.48166e-013 -3.05455e-013 -3.35397 3.40586 7.48649 2.13163e-014 -18.47 -4.9738e-014 0.715765 16.8327 -7.08682 8.58763e-013 -17.95 4.9058e-015 4.6409 -20.432 0.837175 -3.43 -2.76307e-013 1.3442e-012 -3.12343 -24.1062 -4.13023 -5.16455e-013 -18.47 -2.93099e-014 0.41776 7.88069 -7.16038 -6.21725e-015 -17.95 -2.32773e-012 1.3002 6.71431 -0.0751697 2.97791e-013 4.57 -3.18844e-012 -2.23954 -0.304739 -3.73023 -1.16393e-011 6.57 1.46549e-014 -1.68849 -0.342473 -3.57424 1.06 4.19 1.76 0.889561 0.651332 -1.85539 5.81 -1.52511e-012 5.20571e-012 25.6123 -8.86659 -12.6233 2.96597e-012 -12.08 -1.5455e-012 -19.2728 -57.8561 -30.5197 -2.13163e-014 -9.82 -3.55271e-014 15.0417 14.1311 -1.87538 -1.06 4.19 1.76 1.97554 0.743217 1.18706 -6.06 1.28384e-012 -4.93718e-013 -20.2336 4.171 43.5549 2.84271e-012 -11.08 1.10225e-012 -145.4 -51.3824 -124.593 1.42109e-014 -9.82 -2.4869e-014 1.25114 9.74774 -0.106923 5.98105e-012 4.05 -4.17977e-012 0.179256 12.868 -0.0586038 3.55271e-015 5.19 -1.77636e-015 1.22002 10.2238 -0.272178 
-9.02097 38.5935 -4.25101 0.410795 -0.371015 -87.3582 3.43 4.33431e-013 -2.71411e-013 -3.86616 6.95972 7.41225 2.13163e-014 -18.47 -4.9738e-014 1.32353 13.1779 -6.01672 8.07562e-013 -17.95 7.90083e-015 3.5552 -20.6867 0.649457 -3.43 -1.56986e-013 1.3505e-012 -3.13238 -23.7634 -3.97831 -4.6677e-013 -18.47 -2.93099e-014 1.01414 2.50625 -5.45829 -6.21725e-015 -17.95 -2.26175e-012 0.976759 5.64651 -0.0489395 2.93973e-013 4.57 -3.20988e-012 -2.14442 -0.373972 -3.69706 -1.16323e-011 6.57 1.46549e-014 -1.60342 -0.408933 -3.53521 1.06 4.19 1.76 0.666768 0.663383 -1.76942 5.81 -1.50185e-012 5.20323e-012 25.569 -8.70914 -13.0571 2.9068e-012 -12.08 -1.52195e-012 -19.4804 -57.6812 -30.4085 -2.13163e-014 -9.82 -3.55271e-014 15.0803 14.078 -1.87305 -1.06 4.19 1.76 2.13452 0.751463 1.24921 -6.06 1.27593e-012 -4.98446e-013 -20.4589 4.0732 44.2654 2.92449e-012 -11.08 1.13017e-012 -145.13 -51.2695 -124.203 1.42109e-014 -9.82 -2.4869e-014 2.25889 9.53846 -0.188047 5.99593e-012 4.05 -4.15594e-012 0.144434 12.8735 -0.0648473 3.55271e-015 5.19 -1.77636e-015 1.39541 10.4719 -0.325303 
-10.3994 38.4416 -4.37167 0.639626 -0.375317 -86.7799 3.43 4.61853e-013 -2.38043e-013 -3.81693 9.14126 7.42023 2.13163e-014 -18.47 -4.9738e-014 1.89272 12.5155 -6.28477 7.57366e-013 -17.95 8.09029e-014 2.88433 -21.2309 0.540539 -3.43 1.76748e-013 1.35323e-012 -3.15489 -24.3822 -4.08367 -4.16138e-013 -18.47 -2.93099e-014 1.39514 1.89625 -5.31632 -6.21725e-015 -17.95 -2.19497e-012 0.0759802 2.84493 -0.00535897 2.90092e-013 4.57 -3.2298e-012 -2.05999 -0.582083 -3.85756 -1.16247e-011 6.57 1.46549e-014 -1.51248 -0.602736 -3.66902 1.06 4.19 1.76 0.554622 0.668909 -1.77625 5.81 -1.47854e-012 5.20054e-012 25.4897 -7.27632 -13.2327 2.84751e-012 -12.08 -1.49487e-012 -19.668 -57.3429 -30.9741 -2.13163e-014 -9.82 -3.55271e-014 14.7946 13.8034 -1.8003 -1.06 4.19 1.76 2.17216 0.75171 1.16773 -6.06 1.26769e-012 -5.0195e-013 -20.3448 4.164 44.7535 3.00551e-012 -11.08 1.15728e-012 -144.823 -51.2571 -123.295 1.42109e-014 -9.82 -2.4869e-014 4.07957 9.38411 -0.335073 6.01073e-012 4.05 -4.13168e-012 0.17412 12.9816 -0.110426 3.55271e-015 5.19 -1.77636e-015 1.56405 10.8159 -0.373558 
-11.9002 38.302 -4.53837 0.713627 -0.387359 -85.9948 3.43 4.33431e-013 -2.05583e-013 -3.24977 9.73846 7.41101 2.13163e-014 -18.47 -4.9738e-014 2.54289 15.7267 -7.98176 7.08274e-013 -17.95 1.71377e-013 2.74423 -21.8521 0.531003 -3.43 1.55431e-013 1.35224e-012 -2.92443 -23.378 -4.24109 -3.64552e-013 -18.47 -2.93099e-014 1.47017 1.79522 -6.66067 -6.21725e-015 -17.95 -2.12739e-012 -0.534912 1.73122 0.0151699 2.8615e-013 4.57 -3.24822e-012 -2.04669 -0.74671 -4.25073 -1.16166e-011 6.57 1.46549e-014 -1.45945 -0.762853 -4.02147 1.06 4.19 1.76 0.477837 0.672839 -1.76516 5.81 -1.45518e-012 5.19766e-012 25.4905 -5.02915 -13.3629 2.78813e-012 -12.08 -1.46437e-012 -20.0502 -57.1349 -30.7766 -2.13163e-014 -9.82 -3.55271e-014 14.9039 14.572 -1.91687 -1.06 4.19 1.76 2.18116 0.750725 1.09249 -6.06 1.2591e-012 -5.04155e-013 -20.0369 4.29376 44.9613 3.08577e-012 -11.08 1.18354e-012 -144.751 -51.2 -122.689 1.42109e-014 -9.82 -2.4869e-014 3.99398 9.38629 -0.327826 6.02542e-012 4.05 -4.10699e-012 0.200242 13.0541 -0.143409 3.55271e-015 5.19 -1.77636e-015 1.70559 10.9559 -0.379347 
